<svg width="93" height="23" viewBox="0 0 93 23" fill="none" xmlns="http://www.w3.org/2000/svg">
<g clip-path="url(#clip0_17_46)">
<path d="M86.3224 6.83C85.624 6.83 85.0573 7.3853 85.0573 8.0696C85.0573 8.7551 85.624 9.3092 86.3224 9.3092C87.0219 9.3092 87.5874 8.7551 87.5874 8.0696C87.5873 7.3852 87.0218 6.83 86.3224 6.83Z" fill="#02010A"/>
<path d="M81.7101 0.0158997C77.0368 0.0158997 73.023 2.8331 71.3426 6.8252C70.204 5.6347 68.5868 4.8888 66.7942 4.8888C65.0017 4.8888 63.3845 5.6348 62.2458 6.8252C60.5655 2.8331 56.5517 0.0158997 51.8784 0.0158997C45.6977 0.0158997 40.6692 4.9432 40.6692 11C40.6692 17.0568 45.6977 21.984 51.8784 21.984C58.0592 21.984 63.0876 17.0566 63.0876 11C63.0876 8.9973 64.7504 7.368 66.7941 7.368C68.8379 7.368 70.5006 8.9973 70.5006 11C70.5006 17.0567 75.5291 21.984 81.7099 21.984C87.8906 21.984 92.919 17.0566 92.919 11C92.919 4.9434 87.8908 0.0158997 81.7101 0.0158997ZM51.8784 19.5048C47.0927 19.5048 43.1993 15.6896 43.1993 11C43.1993 6.3104 47.0927 2.4952 51.8784 2.4952C56.6642 2.4952 60.5576 6.3104 60.5576 11C60.5576 15.6896 56.6642 19.5048 51.8784 19.5048ZM81.7101 19.5048C76.9243 19.5048 73.0309 15.6896 73.0309 11C73.0309 6.3104 76.9243 2.4952 81.7101 2.4952C86.4958 2.4952 90.3892 6.3104 90.3892 11C90.3892 15.6896 86.4958 19.5048 81.7101 19.5048Z" fill="#02010A"/>
<path d="M86.5361 10.5603C85.8474 10.4445 85.1935 10.8978 85.0753 11.5726C84.7939 13.1801 83.3785 14.3469 81.7099 14.3469C81.0113 14.3469 80.4449 14.902 80.4449 15.5865C80.4449 16.271 81.0113 16.8261 81.7099 16.8261C84.6144 16.8261 87.0785 14.793 87.5689 11.9917C87.6873 11.3168 87.2247 10.6761 86.5361 10.5603Z" fill="#02010A"/>
</g>
<path d="M13.1046 5.90142C12.9934 4.91438 12.5347 4.14976 11.7283 3.60758C10.922 3.05845 9.90717 2.78389 8.68379 2.78389C7.80796 2.78389 7.0503 2.92291 6.4108 3.20095C5.77131 3.47204 5.27431 3.84739 4.91981 4.32701C4.57226 4.79968 4.39848 5.33839 4.39848 5.94313C4.39848 6.45055 4.51665 6.88847 4.75298 7.25687C4.99627 7.62528 5.31254 7.9346 5.7018 8.18483C6.09801 8.42812 6.52202 8.63318 6.97384 8.8C7.42565 8.95987 7.86009 9.09194 8.27715 9.19621L10.3625 9.73839C11.0437 9.90521 11.7422 10.1311 12.4582 10.4161C13.1742 10.7011 13.838 11.0765 14.4497 11.5422C15.0614 12.0079 15.5549 12.5848 15.9302 13.273C16.3125 13.9611 16.5037 14.7848 16.5037 15.7441C16.5037 16.9536 16.1909 18.0275 15.5653 18.9659C14.9467 19.9043 14.0465 20.6445 12.8648 21.1867C11.6901 21.7289 10.2686 22 8.60038 22C7.00164 22 5.61839 21.7463 4.45061 21.2389C3.28284 20.7314 2.36878 20.012 1.70843 19.0806C1.04809 18.1422 0.683158 17.03 0.613647 15.7441H3.84587C3.90843 16.5156 4.15867 17.1586 4.59659 17.673C5.04145 18.1804 5.60796 18.5592 6.29611 18.8095C6.99121 19.0528 7.75235 19.1744 8.57952 19.1744C9.49011 19.1744 10.2999 19.0319 11.0089 18.7469C11.7249 18.455 12.2879 18.0518 12.698 17.5374C13.1081 17.0161 13.3132 16.4079 13.3132 15.7128C13.3132 15.0803 13.1324 14.5624 12.771 14.1592C12.4165 13.7561 11.9334 13.4224 11.3217 13.1583C10.717 12.8942 10.0323 12.6613 9.26768 12.4597L6.74445 11.7716C5.0345 11.3058 3.67905 10.6212 2.6781 9.71754C1.68411 8.8139 1.18711 7.61833 1.18711 6.13081C1.18711 4.90047 1.52076 3.82654 2.18805 2.909C2.85535 1.99147 3.75899 1.27899 4.89896 0.771565C6.03892 0.257188 7.32486 0 8.75678 0C10.2026 0 11.4781 0.253713 12.5833 0.761138C13.6955 1.26856 14.5713 1.96714 15.2108 2.85687C15.8503 3.73965 16.1839 4.7545 16.2118 5.90142H13.1046Z" fill="#02010A"/>
<path d="M20.3537 21.6455V0.291943H23.5755V9.57156H34.221V0.291943H37.4532V21.6455H34.221V12.3346H23.5755V21.6455H20.3537Z" fill="#02010A"/>
<rect x="70" y="8" width="3" height="15" rx="1.5" fill="#02010A"/>
<defs>
<clipPath id="clip0_17_46">
<rect width="52.25" height="22" fill="white" transform="translate(40.6692)"/>
</clipPath>
</defs>
</svg>
