<svg width="188" height="22" viewBox="0 0 188 22" fill="none" xmlns="http://www.w3.org/2000/svg" style="height: 17px;width: auto;">
<path d="M17.4108 0L17.6345 7.00775H16.8006C16.4074 5.25065 15.4378 3.83979 13.892 2.77519C12.3598 1.70026 10.6987 1.16279 8.9088 1.16279C7.5257 1.16279 6.42735 1.44703 5.61376 2.0155C4.81373 2.57364 4.41372 3.21964 4.41372 3.95349C4.41372 4.4186 4.5561 4.83204 4.84085 5.1938C5.23409 5.67959 5.86462 6.16021 6.73245 6.63566C7.36976 6.97674 8.841 7.5814 11.1462 8.44961C14.3734 9.65891 16.5497 10.801 17.6752 11.876C18.7871 12.9509 19.3431 14.1809 19.3431 15.5659C19.3431 17.323 18.4413 18.8372 16.6379 20.1085C14.848 21.3695 12.5699 22 9.80374 22C8.93592 22 8.11555 21.9328 7.34264 21.7984C6.56973 21.6641 5.6002 21.4109 4.43406 21.0388C3.78319 20.832 3.24757 20.7287 2.82722 20.7287C2.47467 20.7287 2.10177 20.832 1.70854 21.0388C1.3153 21.2455 0.996646 21.5607 0.75257 21.9845H0V14.0465H0.75257C1.3492 16.2791 2.49501 17.9845 4.18998 19.1628C5.89852 20.3307 7.73587 20.9147 9.70204 20.9147C11.2207 20.9147 12.4276 20.5995 13.3225 19.969C14.231 19.3385 14.6853 18.6047 14.6853 17.7674C14.6853 17.2713 14.509 16.7907 14.1564 16.3256C13.8174 15.8605 13.2954 15.4212 12.5903 15.0078C11.8852 14.584 10.6377 14.0362 8.84778 13.3643C6.33921 12.4238 4.53576 11.6227 3.43741 10.9612C2.33907 10.2997 1.49158 9.56072 0.894948 8.74419C0.311876 7.92765 0.0203397 7.02842 0.0203397 6.04651C0.0203397 4.37209 0.827148 2.94574 2.44077 1.76744C4.05438 0.589147 6.08836 0 8.54268 0C9.43763 0 10.3055 0.0826873 11.1462 0.248062C11.7835 0.372093 12.5564 0.604651 13.4649 0.945736C14.387 1.27649 15.0311 1.44186 15.3972 1.44186C15.7497 1.44186 16.0277 1.35917 16.2311 1.1938C16.4345 1.02842 16.6243 0.630491 16.8006 0H17.4108Z" fill="black"/>
<path d="M32.4215 11.3953V17.907C32.4215 18.9819 32.4961 19.6537 32.6452 19.9225C32.808 20.1912 33.1131 20.4289 33.5605 20.6357C34.0216 20.832 34.6385 20.9302 35.4114 20.9302H36.3267V21.5039H21.9059V20.9302H22.8212C23.6212 20.9302 24.2653 20.8217 24.7534 20.6047C25.106 20.4599 25.3772 20.2119 25.567 19.8605C25.7162 19.6124 25.7908 18.9612 25.7908 17.907V4.07752C25.7908 3.00258 25.7162 2.33075 25.567 2.06202C25.4179 1.79328 25.1128 1.56072 24.6517 1.36434C24.2043 1.15762 23.5941 1.05426 22.8212 1.05426H21.9059V0.48062H36.3267V1.05426H35.4114C34.6114 1.05426 33.9673 1.16279 33.4792 1.37984C33.1266 1.52455 32.8486 1.77261 32.6452 2.12403C32.4961 2.37209 32.4215 3.02326 32.4215 4.07752V10.031H42.1642V4.07752C42.1642 3.00258 42.0897 2.33075 41.9405 2.06202C41.7913 1.79328 41.4862 1.56072 41.0252 1.36434C40.5642 1.15762 39.9472 1.05426 39.1743 1.05426H38.2793V0.48062H52.6799V1.05426H51.7849C50.9713 1.05426 50.3272 1.16279 49.8526 1.37984C49.5001 1.52455 49.2221 1.77261 49.0187 2.12403C48.8696 2.37209 48.795 3.02326 48.795 4.07752V17.907C48.795 18.9819 48.8696 19.6537 49.0187 19.9225C49.1679 20.1912 49.473 20.4289 49.934 20.6357C50.395 20.832 51.012 20.9302 51.7849 20.9302H52.6799V21.5039H38.2793V20.9302H39.1743C39.9879 20.9302 40.632 20.8217 41.1066 20.6047C41.4591 20.4599 41.7371 20.2119 41.9405 19.8605C42.0897 19.6124 42.1642 18.9612 42.1642 17.907V11.3953H32.4215Z" fill="black"/>
<path d="M69.5415 0.186047C73.9349 0.0620155 77.5011 1.03876 80.2402 3.11628C82.9928 5.1938 84.3691 7.79328 84.3691 10.9147C84.3691 13.5814 83.3454 15.9276 81.2978 17.9535C78.5859 20.6408 74.7552 21.9845 69.8059 21.9845C64.843 21.9845 61.0056 20.7028 58.2936 18.1395C56.1512 16.1137 55.08 13.7106 55.08 10.9302C55.08 7.80879 56.4698 5.2093 59.2496 3.13178C62.0429 1.04393 65.4735 0.0620155 69.5415 0.186047ZM69.7856 1.17829C67.2634 1.17829 65.3447 2.16021 64.0294 4.12403C62.9582 5.73643 62.4226 8.05168 62.4226 11.0698C62.4226 14.6563 63.2497 17.3075 64.904 19.0233C66.0566 20.2222 67.6702 20.8217 69.7449 20.8217C71.1415 20.8217 72.3077 20.5633 73.2433 20.0465C74.4366 19.385 75.3654 18.3307 76.0299 16.8837C76.6943 15.4264 77.0265 13.5297 77.0265 11.1938C77.0265 8.41344 76.6875 6.33592 76.0095 4.96124C75.3315 3.57623 74.4637 2.59948 73.406 2.03101C72.3619 1.46253 71.1551 1.17829 69.7856 1.17829Z" fill="black"/>
<path d="M97.1221 11.9845V17.814C97.1221 18.9509 97.2103 19.6693 97.3866 19.969C97.5764 20.2584 97.9018 20.491 98.3629 20.6667C98.8375 20.8424 99.6985 20.9302 100.946 20.9302V21.5039H86.9319V20.9302C88.2066 20.9302 89.0676 20.8424 89.5151 20.6667C89.9761 20.4806 90.2948 20.2429 90.4711 19.9535C90.6609 19.6641 90.7558 18.9509 90.7558 17.814V4.17054C90.7558 3.03359 90.6609 2.32041 90.4711 2.03101C90.2948 1.73127 89.9761 1.49354 89.5151 1.31783C89.0541 1.14212 88.193 1.05426 86.9319 1.05426V0.48062H98.9527C102.912 0.48062 105.753 1.01809 107.475 2.09302C109.197 3.16796 110.058 4.51163 110.058 6.12403C110.058 7.48837 109.502 8.65633 108.39 9.62791C107.278 10.5995 105.746 11.261 103.794 11.6124C102.478 11.8605 100.254 11.9845 97.1221 11.9845ZM97.1221 1.68992V10.7752C97.5696 10.7959 97.9086 10.8062 98.1391 10.8062C99.7934 10.8062 101.068 10.4341 101.963 9.68992C102.858 8.9354 103.305 7.77261 103.305 6.20155C103.305 4.64083 102.858 3.49871 101.963 2.77519C101.068 2.05168 99.7324 1.68992 97.9561 1.68992H97.1221Z" fill="black"/>
<path d="M125.577 15.5194H115.835L114.675 17.5659C114.296 18.2481 114.106 18.8114 114.106 19.2558C114.106 19.845 114.418 20.2791 115.041 20.5581C115.408 20.7235 116.309 20.8475 117.747 20.9302V21.5039H108.573V20.9302C109.563 20.8165 110.377 20.5065 111.014 20C111.651 19.4832 112.438 18.4238 113.374 16.8217L123.238 0.0465116H123.625L133.571 17.2868C134.52 18.9199 135.3 19.9483 135.91 20.3721C136.371 20.6925 137.022 20.8786 137.863 20.9302V21.5039H124.52V20.9302H125.069C126.14 20.9302 126.893 20.8165 127.327 20.5891C127.625 20.4238 127.774 20.186 127.774 19.876C127.774 19.6899 127.733 19.4987 127.652 19.3023C127.625 19.2093 127.422 18.8217 127.042 18.1395L125.577 15.5194ZM124.886 14.3721L120.777 7.13178L116.547 14.3721H124.886Z" fill="black"/>
<path d="M149.599 11.9845V17.814C149.599 18.9509 149.687 19.6693 149.863 19.969C150.053 20.2584 150.378 20.491 150.839 20.6667C151.314 20.8424 152.175 20.9302 153.422 20.9302V21.5039H139.408V20.9302C140.683 20.9302 141.544 20.8424 141.992 20.6667C142.453 20.4806 142.771 20.2429 142.948 19.9535C143.137 19.6641 143.232 18.9509 143.232 17.814V4.17054C143.232 3.03359 143.137 2.32041 142.948 2.03101C142.771 1.73127 142.453 1.49354 141.992 1.31783C141.531 1.14212 140.669 1.05426 139.408 1.05426V0.48062H151.429C155.389 0.48062 158.229 1.01809 159.952 2.09302C161.674 3.16796 162.535 4.51163 162.535 6.12403C162.535 7.48837 161.979 8.65633 160.867 9.62791C159.755 10.5995 158.223 11.261 156.27 11.6124C154.955 11.8605 152.731 11.9845 149.599 11.9845ZM149.599 1.68992V10.7752C150.046 10.7959 150.385 10.8062 150.616 10.8062C152.27 10.8062 153.545 10.4341 154.439 9.68992C155.334 8.9354 155.782 7.77261 155.782 6.20155C155.782 4.64083 155.334 3.49871 154.439 2.77519C153.545 2.05168 152.209 1.68992 150.433 1.68992H149.599Z" fill="black"/>
<path d="M175.064 11.9845V17.814C175.064 18.9509 175.152 19.6693 175.328 19.969C175.518 20.2584 175.844 20.491 176.305 20.6667C176.779 20.8424 177.64 20.9302 178.888 20.9302V21.5039H164.874V20.9302C166.148 20.9302 167.009 20.8424 167.457 20.6667C167.918 20.4806 168.237 20.2429 168.413 19.9535C168.603 19.6641 168.698 18.9509 168.698 17.814V4.17054C168.698 3.03359 168.603 2.32041 168.413 2.03101C168.237 1.73127 167.918 1.49354 167.457 1.31783C166.996 1.14212 166.135 1.05426 164.874 1.05426V0.48062H176.895C180.854 0.48062 183.695 1.01809 185.417 2.09302C187.139 3.16796 188 4.51163 188 6.12403C188 7.48837 187.444 8.65633 186.332 9.62791C185.22 10.5995 183.688 11.261 181.735 11.6124C180.42 11.8605 178.196 11.9845 175.064 11.9845ZM175.064 1.68992V10.7752C175.511 10.7959 175.85 10.8062 176.081 10.8062C177.735 10.8062 179.01 10.4341 179.905 9.68992C180.8 8.9354 181.247 7.77261 181.247 6.20155C181.247 4.64083 180.8 3.49871 179.905 2.77519C179.01 2.05168 177.674 1.68992 175.898 1.68992H175.064Z" fill="black"/>
</svg>
