<?xml version="1.0" encoding="utf-8"?>
<!-- Generator: Adobe Illustrator 16.0.0, SVG Export Plug-In . SVG Version: 6.00 Build 0)  -->
<!DOCTYPE svg PUBLIC "-//W3C//DTD SVG 1.1//EN" "http://www.w3.org/Graphics/SVG/1.1/DTD/svg11.dtd">
<svg version="1.1" id="Layer_1" xmlns="http://www.w3.org/2000/svg" xmlns:xlink="http://www.w3.org/1999/xlink" x="0px" y="0px"
	 width="143.167px" height="33.833px" viewBox="-14.408 -1.5 143.167 33.833" enable-background="new -14.408 -1.5 143.167 33.833"
	 xml:space="preserve">
<g>
	<path fill="#F04037" d="M38.145,16.139c0,1.301-1.188,2.353-2.655,2.353l0,0c-1.466,0-2.654-1.052-2.654-2.353l0,0
		c0-1.298,1.188-2.351,2.654-2.351l0,0C36.957,13.788,38.145,14.841,38.145,16.139L38.145,16.139z"/>
	<path fill="#F04037" d="M57.311,16.604c0,1.301-1.188,2.353-2.655,2.353l0,0c-1.466,0-2.654-1.052-2.654-2.353l0,0
		c0-1.298,1.188-2.351,2.654-2.351l0,0C56.123,14.253,57.311,15.306,57.311,16.604L57.311,16.604z"/>
	<g>
		<path d="M-8.437,24.504c-1.502-0.486-2.724-1.143-3.667-1.975c-0.505-0.402-0.756-0.972-0.756-1.707
			c0-0.498,0.136-0.932,0.411-1.299c0.273-0.367,0.597-0.553,0.97-0.553c0.395,0,0.845,0.166,1.349,0.499
			c0.942,0.736,1.929,1.27,2.959,1.602c1.031,0.332,2.171,0.498,3.42,0.498c1.599,0,2.827-0.304,3.682-0.908
			c0.856-0.605,1.283-1.488,1.283-2.651c0-0.901-0.401-1.595-1.2-2.082c-0.801-0.487-2.132-0.956-3.995-1.407
			c-1.93-0.45-3.496-0.973-4.703-1.566c-1.204-0.593-2.115-1.351-2.729-2.277c-0.613-0.925-0.921-2.101-0.921-3.524
			c0-1.471,0.385-2.788,1.151-3.95c0.768-1.163,1.834-2.072,3.206-2.724C-6.609-0.174-5.067-0.5-3.357-0.5
			c3.134,0,5.688,0.903,7.661,2.705c0.285,0.262,0.487,0.517,0.609,0.766c0.12,0.248,0.18,0.563,0.18,0.942
			c0,0.499-0.138,0.932-0.411,1.299c-0.274,0.369-0.597,0.552-0.97,0.552c-0.22,0-0.421-0.035-0.606-0.106
			C2.917,5.586,2.671,5.456,2.364,5.266C1.464,4.555,0.593,4.026-0.25,3.683c-0.845-0.344-1.879-0.517-3.107-0.517
			c-1.491,0-2.669,0.327-3.535,0.979c-0.867,0.652-1.299,1.56-1.299,2.723c0,0.973,0.382,1.72,1.151,2.241
			c0.767,0.523,2.072,1.01,3.913,1.46c1.951,0.475,3.533,1.002,4.751,1.584c1.217,0.581,2.148,1.323,2.796,2.225
			c0.646,0.901,0.969,2.029,0.969,3.381c0,1.473-0.377,2.771-1.134,3.896c-0.755,1.129-1.819,2.009-3.189,2.636
			c-1.371,0.628-2.944,0.943-4.72,0.943C-5.343,25.236-6.936,24.992-8.437,24.504z"/>
		<path d="M23.999,14.236v8.756c0,0.666-0.181,1.188-0.543,1.565c-0.361,0.382-0.859,0.57-1.494,0.57
			c-0.637,0-1.142-0.188-1.514-0.57c-0.373-0.378-0.559-0.899-0.559-1.565v-8.756c0-1.257-0.236-2.178-0.707-2.758
			c-0.472-0.582-1.211-0.874-2.219-0.874c-1.184,0-2.133,0.404-2.845,1.211c-0.711,0.807-1.068,1.887-1.068,3.238v7.938
			c0,0.666-0.187,1.188-0.558,1.565c-0.375,0.382-0.878,0.57-1.513,0.57c-0.636,0-1.135-0.188-1.496-0.57
			c-0.362-0.378-0.544-0.899-0.544-1.565V1.706c0-0.616,0.193-1.114,0.578-1.495c0.382-0.378,0.88-0.568,1.495-0.568
			c0.612,0,1.106,0.177,1.48,0.535c0.371,0.355,0.558,0.84,0.558,1.458V9.93c0.547-0.925,1.278-1.632,2.187-2.119
			c0.909-0.485,1.945-0.729,3.106-0.729C22.114,7.082,23.999,9.466,23.999,14.236z"/>
		<path d="M31.184,24.096c-1.239-0.734-2.199-1.792-2.877-3.169c-0.68-1.375-1.019-2.977-1.019-4.805
			c0-1.828,0.339-3.421,1.019-4.788c0.678-1.364,1.638-2.414,2.877-3.149c1.239-0.735,2.679-1.104,4.324-1.104
			c1.644,0,3.085,0.369,4.324,1.104c1.237,0.735,2.191,1.785,2.859,3.149c0.669,1.366,1.002,2.96,1.002,4.788
			c0,1.828-0.333,3.43-1.002,4.805c-0.668,1.377-1.623,2.435-2.859,3.169c-1.239,0.736-2.681,1.104-4.324,1.104
			C33.863,25.2,32.423,24.832,31.184,24.096z M38.533,20.324c0.7-0.948,1.051-2.351,1.051-4.202c0-1.828-0.351-3.22-1.051-4.182
			c-0.703-0.961-1.711-1.44-3.025-1.44c-1.315,0-2.33,0.479-3.042,1.44c-0.713,0.962-1.068,2.354-1.068,4.182
			c0,1.852,0.35,3.254,1.051,4.202c0.701,0.949,1.71,1.424,3.025,1.424C36.811,21.748,37.83,21.273,38.533,20.324z"/>
		<path d="M60.02,8.22c1.086,0.76,1.931,1.834,2.531,3.221c0.604,1.389,0.905,2.986,0.905,4.787c0,1.806-0.301,3.383-0.905,4.734
			c-0.601,1.354-1.439,2.398-2.515,3.133c-1.074,0.736-2.313,1.104-3.715,1.104c-1.14,0-2.16-0.261-3.057-0.783
			c-0.899-0.521-1.591-1.246-2.073-2.17v7.259c0,0.617-0.186,1.104-0.559,1.46c-0.373,0.357-0.867,0.534-1.479,0.534
			c-0.615,0-1.114-0.19-1.496-0.568c-0.384-0.38-0.577-0.879-0.577-1.497V9.252c0-0.641,0.182-1.149,0.543-1.529
			c0.362-0.38,0.851-0.57,1.465-0.57c0.612,0,1.106,0.19,1.478,0.57c0.374,0.38,0.56,0.888,0.56,1.529v0.89
			c0.481-0.972,1.179-1.727,2.088-2.261c0.91-0.532,1.945-0.8,3.107-0.8C57.702,7.082,58.937,7.462,60.02,8.22z M58.263,20.305
			c0.722-0.96,1.084-2.318,1.084-4.076c0-1.801-0.362-3.201-1.084-4.2c-0.725-0.996-1.733-1.494-3.026-1.494
			c-1.316,0-2.331,0.486-3.042,1.46c-0.713,0.972-1.068,2.36-1.068,4.164c0,1.781,0.355,3.159,1.068,4.13
			c0.712,0.972,1.726,1.46,3.042,1.46C56.53,21.748,57.538,21.266,58.263,20.305z"/>
		<path d="M88.412,23.101c0,0.548-0.201,1.008-0.606,1.388c-0.408,0.379-0.872,0.568-1.399,0.568c-0.349,0-0.679-0.101-0.984-0.304
			c-0.309-0.2-0.549-0.514-0.725-0.941l-1.972-4.77H71.151l-1.974,4.77c-0.175,0.428-0.416,0.741-0.723,0.941
			c-0.308,0.203-0.646,0.304-1.021,0.304c-0.503,0-0.964-0.189-1.38-0.568c-0.418-0.38-0.626-0.84-0.626-1.388
			c0-0.309,0.067-0.616,0.199-0.925l9.075-21.11c0.197-0.474,0.499-0.836,0.903-1.085c0.405-0.25,0.842-0.375,1.3-0.375
			c0.461,0,0.892,0.125,1.298,0.375c0.403,0.249,0.708,0.611,0.904,1.085l9.109,21.11C88.346,22.484,88.412,22.792,88.412,23.101z
			 M72.598,15.481h8.68l-4.341-10.57L72.598,15.481z"/>
		<path d="M104.181,8.22c1.083,0.76,1.93,1.834,2.529,3.221c0.605,1.389,0.904,2.986,0.904,4.787c0,1.806-0.299,3.383-0.904,4.734
			c-0.6,1.354-1.438,2.398-2.515,3.133c-1.074,0.736-2.313,1.104-3.717,1.104c-1.14,0-2.158-0.261-3.056-0.783
			c-0.898-0.521-1.589-1.246-2.074-2.17v7.259c0,0.617-0.186,1.104-0.557,1.46c-0.373,0.357-0.865,0.534-1.478,0.534
			c-0.615,0-1.117-0.19-1.498-0.568c-0.383-0.38-0.577-0.879-0.577-1.497V9.252c0-0.641,0.184-1.149,0.546-1.529
			c0.357-0.38,0.848-0.57,1.462-0.57c0.612,0,1.104,0.19,1.478,0.57c0.374,0.38,0.561,0.888,0.561,1.529v0.89
			c0.481-0.972,1.18-1.727,2.088-2.261c0.91-0.532,1.946-0.8,3.105-0.8C101.863,7.082,103.095,7.462,104.181,8.22z M102.42,20.305
			c0.724-0.96,1.085-2.318,1.085-4.076c0-1.801-0.361-3.201-1.085-4.2c-0.724-0.996-1.731-1.494-3.026-1.494
			c-1.313,0-2.328,0.486-3.04,1.46c-0.713,0.972-1.068,2.36-1.068,4.164c0,1.781,0.355,3.159,1.068,4.13
			c0.712,0.972,1.727,1.46,3.04,1.46C100.689,21.748,101.697,21.266,102.42,20.305z"/>
		<path d="M123.941,8.22c1.085,0.76,1.931,1.834,2.531,3.221c0.603,1.389,0.905,2.986,0.905,4.787c0,1.806-0.303,3.383-0.905,4.734
			c-0.601,1.354-1.443,2.398-2.515,3.133c-1.074,0.736-2.313,1.104-3.717,1.104c-1.139,0-2.158-0.261-3.058-0.783
			c-0.897-0.521-1.588-1.246-2.071-2.17v7.259c0,0.617-0.186,1.104-0.559,1.46c-0.374,0.357-0.865,0.534-1.478,0.534
			c-0.614,0-1.115-0.19-1.497-0.568c-0.383-0.38-0.578-0.879-0.578-1.497V9.252c0-0.641,0.185-1.149,0.545-1.529
			c0.36-0.38,0.85-0.57,1.463-0.57s1.107,0.19,1.479,0.57c0.373,0.38,0.56,0.888,0.56,1.529v0.89
			c0.481-0.972,1.181-1.727,2.088-2.261c0.91-0.532,1.947-0.8,3.106-0.8C121.622,7.082,122.857,7.462,123.941,8.22z M122.181,20.305
			c0.725-0.96,1.085-2.318,1.085-4.076c0-1.801-0.36-3.201-1.085-4.2c-0.722-0.996-1.73-1.494-3.024-1.494
			c-1.316,0-2.329,0.486-3.042,1.46c-0.711,0.972-1.068,2.36-1.068,4.164c0,1.781,0.357,3.159,1.068,4.13
			c0.713,0.972,1.726,1.46,3.042,1.46C120.45,21.748,121.459,21.266,122.181,20.305z"/>
	</g>
</g>
</svg>
